<?xml version="1.0" encoding="UTF-8" standalone="no"?>
<svg
   xmlns:dc="http://purl.org/dc/elements/1.1/"
   xmlns:cc="http://creativecommons.org/ns#"
   xmlns:rdf="http://www.w3.org/1999/02/22-rdf-syntax-ns#"
   xmlns:svg="http://www.w3.org/2000/svg"
   xmlns="http://www.w3.org/2000/svg"
   xmlns:sodipodi="http://sodipodi.sourceforge.net/DTD/sodipodi-0.dtd"
   xmlns:inkscape="http://www.inkscape.org/namespaces/inkscape"
   width="107"
   height="24"
   viewBox="0 0 107 24"
   version="1.1"
   id="svg18"
   sodipodi:docname="logo-gama.svg"
   inkscape:version="1.0.1 (3bc2e813f5, 2020-09-07)">
  <metadata
     id="metadata24">
    <rdf:RDF>
      <cc:Work
         rdf:about="">
        <dc:format>image/svg+xml</dc:format>
        <dc:type
           rdf:resource="http://purl.org/dc/dcmitype/StillImage" />
      </cc:Work>
    </rdf:RDF>
  </metadata>
  <defs
     id="defs22" />
  <sodipodi:namedview
     pagecolor="#ffffff"
     bordercolor="#666666"
     borderopacity="1"
     objecttolerance="10"
     gridtolerance="10"
     guidetolerance="10"
     inkscape:pageopacity="0"
     inkscape:pageshadow="2"
     inkscape:window-width="1366"
     inkscape:window-height="705"
     id="namedview20"
     showgrid="false"
     inkscape:zoom="10.906542"
     inkscape:cx="53.5"
     inkscape:cy="12"
     inkscape:window-x="-8"
     inkscape:window-y="-8"
     inkscape:window-maximized="1"
     inkscape:current-layer="svg18" />
  <g
     fill="#63dc3e"
     id="g4"
     style="fill-rule:nonzero">
    <path
       d="m 0,13.844 v -3.74 c 0,-1.95 1.076,-3 2.88,-3 1.748,0 2.745,1.05 2.807,2.962 H 4.034 C 3.993,9.112 3.63,8.709 2.876,8.709 c -0.753,0 -1.17,0.416 -1.17,1.402 v 3.74 c 0,0.982 0.43,1.403 1.198,1.403 0.794,0 1.225,-0.416 1.225,-1.371 V 12.968 H 2.823 v -1.465 h 2.92 V 13.87 C 5.703,15.78 4.651,16.84 2.878,16.84 1.104,16.84 0,15.78 0,13.845 Z m 10.975,1.13 H 8.769 L 8.392,16.688 H 6.676 L 8.99,7.278 h 1.772 l 2.312,9.397 H 11.358 Z M 10.639,13.403 10.262,11.656 C 10.128,11.01 9.979,9.976 9.884,9.343 H 9.844 C 9.763,9.974 9.614,11.01 9.48,11.656 L 9.104,13.403 Z M 22.114,7.27 v 9.405 h -1.626 v -2.939 c 0.04,-1.102 0.08,-2.182 0.134,-3.24 L 20.555,10.47 c -0.27,0.779 -0.58,1.627 -0.875,2.473 L 19.048,14.61 H 17.405 L 16.774,12.943 C 16.477,12.097 16.181,11.249 15.899,10.47 l -0.067,0.026 c 0.053,1.061 0.093,2.137 0.134,3.24 v 2.94 H 14.35 V 7.27 h 1.669 l 1.533,3.683 c 0.201,0.497 0.524,1.357 0.646,1.747 h 0.051 c 0.122,-0.39 0.457,-1.247 0.66,-1.747 L 20.433,7.27 Z m 5.584,7.704 h -2.205 l -0.38,1.701 h -1.716 l 2.314,-9.41 h 1.772 l 2.309,9.41 h -1.716 z m -0.335,-1.571 -0.379,-1.75 C 26.85,11.007 26.702,9.973 26.607,9.34 h -0.041 c -0.081,0.63 -0.23,1.667 -0.363,2.312 l -0.375,1.75 h 1.535 z"
       id="path2" />
  </g>
  <g
     fill="#292929"
     id="g8"
     style="fill-rule:nonzero;fill:#ffffff">
    <path
       d="m 62.954,14.744 h -2.731 l -0.498,2.044 h -1.157 l 2.419,-9.41 h 1.198 l 2.422,9.41 H 63.45 Z M 62.712,13.722 61.945,10.537 A 23.206,23.206 0 0 1 61.608,8.776 h -0.04 a 22.052,22.052 0 0 1 -0.338,1.76 l -0.767,3.186 z m 2.893,0.351 v -3.98 c 0,-1.855 1.05,-2.891 2.624,-2.891 1.614,0 2.61,0.994 2.705,2.805 h -1.092 c -0.081,-1.21 -0.646,-1.775 -1.629,-1.775 -0.901,0 -1.506,0.59 -1.506,1.854 v 3.987 c 0,1.246 0.631,1.842 1.547,1.842 0.995,0 1.547,-0.578 1.655,-1.761 H 71 c -0.108,1.787 -1.103,2.796 -2.746,2.796 -1.587,0 -2.65,-1.023 -2.65,-2.877 z m 10.387,0.671 H 73.26 l -0.498,2.044 h -1.157 l 2.422,-9.41 h 1.198 l 2.422,9.41 H 76.49 l -0.5,-2.044 z M 75.75,13.722 74.983,10.537 A 23.206,23.206 0 0 1 74.646,8.776 h -0.04 a 22.052,22.052 0 0 1 -0.338,1.76 l -0.767,3.186 h 2.25 z m 3.33,-6.344 h 2.234 c 1.803,0 2.853,1.048 2.853,2.85 v 3.71 c 0,1.802 -1.063,2.851 -2.84,2.851 H 79.08 Z m 2.252,8.362 c 1.103,0 1.736,-0.623 1.736,-1.842 v -3.643 c 0,-1.21 -0.623,-1.829 -1.736,-1.829 H 80.19 v 7.314 h 1.143 z m 9.54,0.013 v 1.035 h -4.654 v -9.41 h 4.507 V 8.4 H 87.32 v 3.106 h 3.162 v 1.008 H 87.32 v 3.24 z m 8.894,-8.375 v 9.41 h -1.092 v -4.32 c 0.014,-1.023 0.04,-1.936 0.094,-2.85 L 98.713,9.603 c -0.256,0.712 -0.605,1.587 -0.936,2.473 l -0.983,2.54 h -1.091 l -0.996,-2.54 C 94.385,11.19 94.021,10.316 93.772,9.603 l -0.067,0.014 c 0.054,0.915 0.093,1.828 0.093,2.85 v 4.316 H 92.706 V 7.378 h 1.158 l 1.628,3.938 c 0.23,0.564 0.565,1.491 0.713,1.976 h 0.054 c 0.156,-0.483 0.498,-1.412 0.727,-1.976 l 1.629,-3.938 h 1.15 z m 3.7,6.18 -2.315,-6.18 h 1.157 l 1.197,3.375 c 0.156,0.444 0.349,0.982 0.511,1.465 h 0.02 c 0.156,-0.484 0.35,-1.035 0.512,-1.491 l 1.198,-3.348 h 1.157 l -2.335,6.18 v 3.225 h -1.102 z"
       id="path6"
       style="fill:#ffffff" />
  </g>
  <g
     fill="#63dc3e"
     id="g12"
     style="fill-rule:nonzero">
    <path
       d="M 40.708,13.767 H 38.592 V 9.16 l 2.116,-0.38 z m 3.039,0 H 41.63 V 8.152 l 2.117,-0.4 z m 0.92,-6.529 h 2.117 v 6.53 h -2.117 z m 5.157,6.529 h -2.117 v -5.62 l 2.117,0.38 z m -5.154,0.926 h 5.152 v 2.115 H 44.67 Z"
       id="path10" />
  </g>
  <path
     fill="#63dc3e"
     d="m 44.207,23.892 c -6.562,0 -11.88,-5.314 -11.88,-11.87 0,-6.556 5.318,-11.87 11.88,-11.87 6.561,0 11.88,5.314 11.88,11.87 -0.006,6.553 -5.321,11.864 -11.88,11.87 z m 0,-21.402 c -5.27,0 -9.541,4.268 -9.541,9.533 0,5.265 4.272,9.533 9.54,9.533 5.27,0 9.542,-4.268 9.542,-9.533 C 53.74,6.763 49.473,2.5 44.207,2.493 Z"
     id="path14"
     style="fill-rule:nonzero" />
</svg>
